<?xml version="1.0" encoding="utf-8"?>
<!-- Generator: Adobe Illustrator 24.0.3, SVG Export Plug-In . SVG Version: 6.00 Build 0)  -->
<svg version="1.1" id="Layer_1" xmlns="http://www.w3.org/2000/svg" xmlns:xlink="http://www.w3.org/1999/xlink" x="0px" y="0px"
	 viewBox="0 0 50 50" style="enable-background:new 0 0 50 50;" xml:space="preserve">
<style type="text/css">
	.st0{fill:#FFFFFF;stroke:#FFFFFF;stroke-width:4;stroke-miterlimit:10;}
</style>
<g>
	<path class="st0" d="M43.4,45.1c-0.4,0-0.8-0.2-1.2-0.5L5.4,7.7c-0.7-0.7-0.7-1.7,0-2.3c0.2-0.3,0.7-0.5,1.2-0.5s0.8,0.2,1.2,0.5
		l36.9,36.9c0.3,0.3,0.5,0.7,0.5,1.2c0,0.4-0.2,0.8-0.5,1.2S43.9,45.1,43.4,45.1z"/>
	<path class="st0" d="M6.6,5.3c0.3,0,0.7,0.2,0.9,0.3l36.9,36.9c0.5,0.5,0.5,1.2,0,1.7c-0.2,0.2-0.6,0.3-0.9,0.3
		c-0.3,0-0.7-0.2-0.9-0.3L5.7,7.4c-0.5-0.5-0.5-1.2,0-1.7C5.9,5.4,6.3,5.3,6.6,5.3 M6.6,4.5C6,4.5,5.5,4.7,5.1,5.1
		C4.3,5.9,4.3,7.2,5.1,8L42,44.9c0.4,0.4,0.9,0.6,1.5,0.6s1.1-0.2,1.5-0.6c0.8-0.8,0.8-2.2,0-2.9L8,5.1C7.6,4.7,7.1,4.5,6.6,4.5
		L6.6,4.5z"/>
</g>
<g>
	<path class="st0" d="M6.6,45.1c-0.4,0-0.8-0.2-1.2-0.5c-0.7-0.7-0.7-1.7,0-2.3L42.3,5.4c0.3-0.3,0.7-0.5,1.2-0.5
		c0.4,0,0.8,0.2,1.2,0.5c0.3,0.3,0.5,0.7,0.5,1.2c0,0.4-0.2,0.8-0.5,1.2L7.7,44.6C7.4,44.9,7,45.1,6.6,45.1z"/>
	<path class="st0" d="M43.4,5.3c0.3,0,0.7,0.2,0.9,0.3c0.5,0.5,0.5,1.2,0,1.7L7.4,44.3c-0.2,0.2-0.6,0.3-0.9,0.3
		c-0.3,0-0.6-0.1-0.8-0.3c-0.5-0.5-0.5-1.2,0-1.7L42.6,5.7C42.9,5.4,43.1,5.3,43.4,5.3 M43.4,4.5c-0.5,0-1.1,0.2-1.5,0.6L5.1,42
		c-0.8,0.8-0.8,2.2,0,2.9l0,0c0.4,0.4,0.9,0.6,1.5,0.6s1-0.2,1.4-0.6L44.9,8c0.8-0.8,0.8-2.2,0-2.9l0,0C44.5,4.7,44,4.5,43.4,4.5
		L43.4,4.5z"/>
</g>
</svg>
