<?xml version="1.0" encoding="utf-8"?>
<!-- Generator: Adobe Illustrator 24.0.1, SVG Export Plug-In . SVG Version: 6.00 Build 0)  -->
<svg version="1.1" id="Layer_1" xmlns="http://www.w3.org/2000/svg" xmlns:xlink="http://www.w3.org/1999/xlink" x="0px" y="0px"
	 viewBox="0 0 1920 1080" style="enable-background:new 0 0 1920 1080;" xml:space="preserve">
<style type="text/css">
	.st0{fill:url(#SVGID_1_);}
	.st1{fill:#2E0E66;}
	.st2{fill:url(#SVGID_2_);}
	.st3{fill:#161616;}
	.st4{fill:url(#SVGID_3_);}
	.st5{fill:url(#SVGID_4_);}
	.st6{fill:url(#SVGID_5_);}
	.st7{fill:url(#SVGID_6_);}
	.st8{fill:url(#SVGID_7_);}
	.st9{fill:url(#SVGID_8_);}
	.st10{fill:url(#SVGID_9_);}
	.st11{fill:url(#SVGID_10_);}
	.st12{fill:url(#SVGID_11_);}
	.st13{fill:url(#SVGID_12_);}
	.st14{fill:url(#SVGID_13_);}
	.st15{fill:url(#SVGID_14_);}
	.st16{fill:url(#SVGID_15_);}
	.st17{fill:url(#SVGID_16_);}
	.st18{fill:url(#SVGID_17_);}
	.st19{fill:url(#SVGID_18_);}
	.st20{fill:url(#SVGID_19_);}
	.st21{fill:url(#SVGID_20_);}
	.st22{fill:url(#SVGID_21_);}
	.st23{fill:url(#SVGID_22_);}
	.st24{fill:url(#SVGID_23_);}
	.st25{fill:url(#SVGID_24_);}
	.st26{fill:url(#SVGID_25_);}
	.st27{fill:url(#SVGID_26_);}
	.st28{fill:url(#SVGID_27_);}
	.st29{fill:url(#SVGID_28_);}
	.st30{fill:url(#SVGID_29_);}
	.st31{fill:url(#SVGID_30_);}
	.st32{fill:url(#SVGID_31_);}
	.st33{fill:url(#SVGID_32_);}
	.st34{fill:#FFFFFF;}
</style>
<g id="Background">
	<g>
		
			<linearGradient id="SVGID_1_" gradientUnits="userSpaceOnUse" x1="966.5" y1="-9.094947e-13" x2="966.5" y2="1080" gradientTransform="matrix(1 0 0 -1 0 1080)">
			<stop  offset="0.335" style="stop-color:#FFFFFF"/>
			<stop  offset="0.3487" style="stop-color:#F7F4FE"/>
			<stop  offset="0.4251" style="stop-color:#CEBCF9"/>
			<stop  offset="0.5037" style="stop-color:#AA89F4"/>
			<stop  offset="0.5829" style="stop-color:#8C5FF0"/>
			<stop  offset="0.6628" style="stop-color:#733DED"/>
			<stop  offset="0.7437" style="stop-color:#6022EA"/>
			<stop  offset="0.8259" style="stop-color:#520FE8"/>
			<stop  offset="0.9102" style="stop-color:#4A04E7"/>
			<stop  offset="1" style="stop-color:#4700E7"/>
		</linearGradient>
		<rect class="st0" width="1933" height="1080"/>
	</g>
</g>
<g id="Back_Mountains">
	<g>
		<path class="st1" d="M1933,1080V633.4c0,0-48.3-29.1-64.4-19.8c-16.1,9.4-43.3,37.5-43.3,37.5l-61.4-38.5c0,0-45.3,20.8-52.3,35.4
			s-66.4-29.1-73.5-16.7c-7,12.5-50.3-16.7-69.4-19.8s-42.3-21.9-42.3-21.9c-14.1,10.4-56.3,35.4-56.3,35.4s-31.2-16.7-40.2-13.5
			c-9.1,3.1-14.1-20.8-28.2-20.8s-64.4,41.6-64.4,41.6l-64.4-20.8l-21.1,11.5c0-7.3-36.2-20.8-43.3-20.8s-31.2-27.1-31.2-27.1
			c-5,11.5-29.2,28.1-38.2,30.2c-9.1,2.1-40.2,32.3-40.2,32.3l-24.1-16.7l-28.2,27.1l-50.3-12.5c0,0-90.6-8.3-99.6-22.9
			c-9.1-14.6-48.3-19.8-48.3-19.8l-26.2,34.4c0,0-64.4,27.1-97.6,12.5s-45.3-36.4-50.3-34.4c-5,2.1-38.2,21.9-38.2,21.9L595.7,648
			c0,0-26.2-17.7-36.2-20.8c-10.1-3.1-52.3,20.8-52.3,20.8s-23.1-28.1-36.2-33.3s-35.2,11.5-35.2,11.5s-40.2,29.1-50.3,20.8
			s-43.3-19.8-59.4-20.8s-34.2-20.8-34.2-20.8c-19.1,3.1-59.4,41.6-59.4,41.6c-14.1-14.6-45.3-20.8-45.3-20.8L150.9,647
			c0,0-44.3-27.1-54.3-20.8s-43.3-20.8-43.3-20.8l-21.1,21.9C18.1,634.5,0,647,0,647v433"/>
	</g>
</g>
<g id="Middle_Mountains">
	
		<linearGradient id="SVGID_2_" gradientUnits="userSpaceOnUse" x1="966.0001" y1="9.997559e-02" x2="966.0001" y2="507.3" gradientTransform="matrix(1 0 0 -1 0 1080)">
		<stop  offset="0" style="stop-color:#FFFFFF"/>
		<stop  offset="0.4343" style="stop-color:#F9F9FD"/>
		<stop  offset="0.4666" style="stop-color:#DDD5E9"/>
		<stop  offset="0.5123" style="stop-color:#BBA8D0"/>
		<stop  offset="0.5613" style="stop-color:#9D81B9"/>
		<stop  offset="0.613" style="stop-color:#8460A7"/>
		<stop  offset="0.6681" style="stop-color:#6F4597"/>
		<stop  offset="0.7279" style="stop-color:#5F308C"/>
		<stop  offset="0.7948" style="stop-color:#542183"/>
		<stop  offset="0.8745" style="stop-color:#4D197E"/>
		<stop  offset="1" style="stop-color:#4B167D"/>
	</linearGradient>
	<path class="st2" d="M1,713.8l28.2-30.5c0,0,163.1-30.8,191.3-23.6c14.1,3.6,12.3,24.4,43.3,14.8s33.2-27.3,48.3-33.5
		c0,0,62.2,40.4,107.5,23c0,0,17.3-14.1,36.5-16.1c50.9-5.2,35.3-12.5,71.5-20.7c0,0,71.2,30.6,109.4,9.1c0,0,12.1,9.2,47.3,16.4
		s97.6,2,97.6,2l65.4-55.3l50.3,22.5c0,0,31.2-3.1,58.4-36.9l37.2-12.3c0,0,36.2,17.4,55.3,12.3l62.4,30.7l54.3,16.4l44.3-20.5
		c0,0,26.2-4.1,43.3,20.5c17.1,24.6,45.3,10.2,45.3,10.2l22.1-31.8l33.2-25.6l52.3,47.1l89.6,29.7l29.2,31.8l40.2-17.4
		c0,0,15.1,25.6,31.2,14.3s44.3-22.5,56.3-18.4c0,0,78-7.9,90.6,4.1c48.3,46.1,45.3,26.6,57.4,19.5c12.1-7.2,69.4-23.6,69.4-23.6
		l61.4,29.7l1,378.2H0L1,713.8z"/>
</g>
<g id="Foreground">
	<path class="st3" d="M1920.4,729.2l-21.7,24.8c-1.3,1.4-3.1,2.3-5,2.3h-24.4c-1.5,0-3-0.5-4.2-1.5l24,36.7l23.2,13l-24.2,36
		l24.2,52l-33.2-28l-23.2-5l21.1,33l-79.5-65l-46.3-5l67.5,55l27.2,26l34.2,20h-65.4l2-20l-22.1,10l-18.1-36l-75.5-17l-45.3-58
		l18.1-130l-18.1-36l4-16.7c-1.4-0.6-3.1-0.6-4.6,0l-34.9,12.7c0,0-44.5,12.9-48.8,10.3l-0.5,1l-13,26.2l0,0
		c-0.8,1.7,0.4,3.8,2.3,3.9l46.9,2.6l2.4,0.1l0.2,2.3l5.7,65.3l0.1,1.4l-1,0.8l0,0l0,0l-92.4,80.1c-0.7,0.6-1.1,1.6-0.9,2.5
		l16.2,85.6l1.7,8.9l-6.3-6.5l-20.2-20.8c-0.9-1-2.4-1.1-3.5-0.3h-0.1l-10.2,7.4c-1.5,1.1-1.5,3.3,0,4.3l0,0l0,0l0.5,0.4l7.5,5.5
		l-9.2-0.5l-22-1.3l-2-0.1l-0.5-1.9l-9.5-39.8l0,0l0,0c0-0.2-0.1-0.3-0.2-0.5l0,0l0,0l-24.8-47.6l-0.3-0.6l-2.5-4.9l-0.4-0.8
		l0.1-0.7v-0.2l0,0l17.9-100.5c0.1-0.4,0.1-0.8-0.1-1.2l-7.1-26l0,0l0,0v-0.1c-0.8-2.6-4.6-2.5-5.3,0.2l-5.6,23.5l-10-17.1
		c-1.3-2.2-4.7-1.6-5.1,1l-9,70.2l-0.1,0.9l-0.6,0.6l-31,32.7c-0.9,1-1,2.4-0.2,3.5l51.1,67.9l0.9,1.2l-0.5,1.3l0,0l0,0l0,0
		l-15.6,38.3l-5,12.3l-0.3-13.1v-0.1V910l-0.7-35.7c0-0.6-0.3-1.3-0.7-1.8l-15.3-17.1c-0.1-0.1-0.2-0.2-0.3-0.3l0,0l0,0l-40.4-31.5
		c-1-0.8-2.4-0.7-3.4,0l0,0l-46.1,37.1l0,0l0,0l-0.2,0.1l-5.4,4.4l1.1-6.8c0-0.1,0-0.2,0-0.2l15.8-96.3c0.1-0.4,0-0.9-0.1-1.3
		l-39.5-119.8l0,0l-0.5-1.6l1.2-1.2l63.9-61.6c0.8-0.7,1-1.9,0.7-2.8l-23.4-64.9c-0.1-0.2-0.2-0.4-0.3-0.6l-0.2-0.2l-44.3-52.8
		l-0.7-0.8l0.1-0.9v-0.2l0,0l5.7-69.1l-54.7,26.6c-1,0.5-1.9,1.2-2.5,2.2c0,0-20,26-22.7,25.2c-8.8-2.6-10.4,26.9-14.9,42.6
		c-2.8,9.8-19.6,22.5-23.2,41c-0.7,3.6-2.7,6.9-5.4,9.9c-0.5,0.5-0.9,1-1.4,1.5c-9.5,9.5-25.1,15.7-25.7,16.6l-15.8,23.5
		c-0.7,1-1.6,1.8-2.6,2.3c-5.8,2.8-25.8,12.5-43.1,22.9c-0.1,0-0.1,0.1-0.2,0.1c-3.8,2.3-7.5,4.6-10.9,6.9c-0.7,0.5-1.4,1-2.1,1.5
		l0,0c-4.8,3.4-8.8,6.7-11.3,9.6l0,0c-0.2,0.2-0.4,0.5-0.6,0.7c-0.1,0.1-0.1,0.1-0.2,0.2c-11.3,14.6-65.1-19.2-71.8-23.5
		c-0.5-0.3-1-0.5-1.5-0.7c-2.7-0.9-12-3.9-22.7-7.5l6.3,4.4l-37.3,28l22.1,35l-20.1,36l35.2-5l-57.4,47l-11.1-36l-35.2,55v-19
		l-70.5,28l19.1-28l-46.3-53l-24.2-39l11.1-49l18.1-15l19.1-35l-19.1-35l11.2-25L745,491.9c-0.2,0.1-0.4,0.3-0.7,0.4l-27.4,20.3
		c-0.2,0.2-0.5,0.4-0.7,0.6l-39,36.3c-0.4,0.4-0.9,0.7-1.4,1l-42.5,22.9c-1.8,0.9-2.9,2.6-3.3,4.5c-2.7,13.8-25,53.7-32.1,66.3
		c-1.3,2.3-3.9,3.6-6.6,3.3l-16.9-2.2c-1.8-0.2-3.6,0.3-5,1.4l-39.3,31.6c-2.3,1.8-5.5,2-7.9,0.3l-3.1-2.1l2.9,2.1l-28.2-1l-13.1,11
		l11.1,4l-1,14l45.3,12l-22.1,18l15.1,23l-20.1,24v-13l-33.2,13l7-18l-54.4-39l12.1-26l-16.1-24l19.1-17l-6-9l7.5-18.5
		c-8.8,7-19.9,19.4-23.3,23.2c-0.7,0.8-1.5,1.3-2.4,1.7l-4.7,2c-2.3,0.9-17,5.8-17.8,8.1c-1.9,5.8-22.5,8-31.9,6.1
		c-0.3-0.1-0.7-0.1-1-0.2h-0.1c-2.1-0.6-4.3,0-6,1.3c-14.3,11.9-29.8,14.7-34.9,15.3c-1.2,0.1-2.3,0.6-3.3,1.4l-37.2,29.3
		c-2.1,1.7-5.1,1.9-7.5,0.5l-15.6-9.1l0,0l-44.3-5l20.8,63.4l6.4,19.6L212.4,759l-10.6,3.5l-6,10l-9.1,9v14l-5,36l-7.6-38.5
		l-2.7-13.8l3.7-25.3l-11.1-7.7l-14.5,2.2v35L131.1,794l-6.4,3.7l-19.4,42.9l1-76l21.6-30.5l-13.1-35l18.6-45.5l-19.1-27l6-27.6
		c-3.4,4.7-6.9,8-8.1,9.1c-0.3,0.3-0.6,0.5-1,0.7c-10,6.3-24.8,35.9-31.4,49.8c-1.1,2.4-3.5,3.8-6,3.8c-1.3,0-2.7-0.4-3.9-1.2
		c-3.4-2.4-8.2-1.1-9.9,2.6L41.3,705c-0.7,1.6-2,2.8-3.7,3.4L0,757v323h1932V733.5C1932,727.5,1924.4,724.7,1920.4,729.2z
		 M83.1,696.5l-13.1,15v-15l-5-17l10.1-11l-5-7l20.1,11l-16.1,14L83.1,696.5z"/>
</g>
<g id="shadow">
	
		<linearGradient id="SVGID_3_" gradientUnits="userSpaceOnUse" x1="724.3" y1="462.6527" x2="949.9" y2="462.6527" gradientTransform="matrix(1 0 0 -1 0 1080)">
		<stop  offset="0" style="stop-color:#19283F"/>
		<stop  offset="0.2075" style="stop-color:#202654"/>
		<stop  offset="0.4641" style="stop-color:#272468"/>
		<stop  offset="0.7263" style="stop-color:#2B2273"/>
		<stop  offset="1" style="stop-color:#2C2277"/>
	</linearGradient>
	<path class="st4" d="M914.7,689.5l35.2-5l-57.4,47l-11.1-36l-35.2,55v-19l-70.5,28l19.1-28l-46.3-53l-24.2-39l11.1-49l18.1-15
		l19.1-35l-19.1-35l11.2-25l7.8-4.4c2.2-1.3,4.9-1.2,7,0.3c4.8,3.2,13.9,8.6,21.2,11.8c3.6,1.6,6.8,2.6,8.9,2.6
		c9-0.2,67.3,44.6,66.5,48.4c-0.2,1.2,2.1,1.5,2.7,2.6l0,0c0.6,1.2,1.6,2.9,2.9,4.9c5.5,8.9,16.4,24.2,29,28.5
		c8.3,2.9,20.9,7,32,10.7c0.3,0.1,0.6,0.2,0.9,0.3l6.3,4.4l-37.3,28l22.1,35L914.7,689.5z"/>
	
		<linearGradient id="SVGID_4_" gradientUnits="userSpaceOnUse" x1="1571.0568" y1="437.7" x2="1571.5702" y2="437.7" gradientTransform="matrix(1 0 0 -1 0 1080)">
		<stop  offset="0" style="stop-color:#19283F"/>
		<stop  offset="0.2075" style="stop-color:#202654"/>
		<stop  offset="0.4641" style="stop-color:#272468"/>
		<stop  offset="0.7263" style="stop-color:#2B2273"/>
		<stop  offset="1" style="stop-color:#2C2277"/>
	</linearGradient>
	<path class="st5" d="M1571.6,642l-0.3,0.6c-0.1,0-0.1-0.1-0.2-0.2l0,0L1571.6,642z"/>
	
		<linearGradient id="SVGID_5_" gradientUnits="userSpaceOnUse" x1="424.4" y1="374.1168" x2="536.1" y2="374.1168" gradientTransform="matrix(1 0 0 -1 0 1080)">
		<stop  offset="0" style="stop-color:#19283F"/>
		<stop  offset="0.2075" style="stop-color:#202654"/>
		<stop  offset="0.4641" style="stop-color:#272468"/>
		<stop  offset="0.7263" style="stop-color:#2B2273"/>
		<stop  offset="1" style="stop-color:#2C2277"/>
	</linearGradient>
	<path class="st6" d="M514,736.5l15.1,23l-20.1,24v-13l-33.2,13l7-18l-54.4-39l12.1-26l-16.1-24l19.1-17l-6-9L445,632
		c1.3-1,2.5-1.9,3.7-2.7c0.9-0.6,1.9-0.9,2.9-1c1.9-0.2,3.9,0.5,5.3,1.9c1.8,1.8,4.2,4.2,7.1,6.9l0,0c6.5,5.9,15.2,13.2,23.8,18
		c0.2,0.1,0.3,0.2,0.5,0.3l30.8,21l2.9,2.1l-28.2-1l-13.1,11l11.1,4l-1,14l45.3,12L514,736.5z"/>
	
		<linearGradient id="SVGID_6_" gradientUnits="userSpaceOnUse" x1="-0.8" y1="370.3" x2="-0.8" y2="370.3" gradientTransform="matrix(1 0 0 -1 0 1080)">
		<stop  offset="0" style="stop-color:#19283F"/>
		<stop  offset="0.2075" style="stop-color:#202654"/>
		<stop  offset="0.4641" style="stop-color:#272468"/>
		<stop  offset="0.7263" style="stop-color:#2B2273"/>
		<stop  offset="1" style="stop-color:#2C2277"/>
	</linearGradient>
	<path class="st7" d="M-0.8,709.7"/>
	
		<linearGradient id="SVGID_7_" gradientUnits="userSpaceOnUse" x1="-0.2" y1="324.5" x2="-0.2" y2="324.5" gradientTransform="matrix(1 0 0 -1 0 1080)">
		<stop  offset="0" style="stop-color:#19283F"/>
		<stop  offset="0.2075" style="stop-color:#202654"/>
		<stop  offset="0.4641" style="stop-color:#272468"/>
		<stop  offset="0.7263" style="stop-color:#2B2273"/>
		<stop  offset="1" style="stop-color:#2C2277"/>
	</linearGradient>
	<path class="st8" d="M-0.2,755.5"/>
	
		<linearGradient id="SVGID_8_" gradientUnits="userSpaceOnUse" x1="149.5" y1="333.25" x2="164.0276" y2="333.25" gradientTransform="matrix(1 0 0 -1 0 1080)">
		<stop  offset="0" style="stop-color:#19283F"/>
		<stop  offset="0.2075" style="stop-color:#202654"/>
		<stop  offset="0.4641" style="stop-color:#272468"/>
		<stop  offset="0.7263" style="stop-color:#2B2273"/>
		<stop  offset="1" style="stop-color:#2C2277"/>
	</linearGradient>
	<polygon class="st9" points="164,746.3 149.5,748.5 162.1,745 	"/>
	
		<linearGradient id="SVGID_9_" gradientUnits="userSpaceOnUse" x1="185.1" y1="429.25" x2="186.7612" y2="429.25" gradientTransform="matrix(1 0 0 -1 0 1080)">
		<stop  offset="0" style="stop-color:#19283F"/>
		<stop  offset="0.2075" style="stop-color:#202654"/>
		<stop  offset="0.4641" style="stop-color:#272468"/>
		<stop  offset="0.7263" style="stop-color:#2B2273"/>
		<stop  offset="1" style="stop-color:#2C2277"/>
	</linearGradient>
	<path class="st10" d="M186,652.8c0.4-1.4,0.1-3-0.9-4.1l1.7,1.9L186,652.8z"/>
	
		<linearGradient id="SVGID_10_" gradientUnits="userSpaceOnUse" x1="64.9417" y1="393.5" x2="90.1109" y2="393.5" gradientTransform="matrix(1 0 0 -1 0 1080)">
		<stop  offset="0" style="stop-color:#19283F"/>
		<stop  offset="0.2075" style="stop-color:#202654"/>
		<stop  offset="0.4641" style="stop-color:#272468"/>
		<stop  offset="0.7263" style="stop-color:#2B2273"/>
		<stop  offset="1" style="stop-color:#2C2277"/>
	</linearGradient>
	<polygon class="st11" points="74,686.5 83.1,696.5 70,711.5 70,696.5 64.9,679.5 75,668.5 70,661.5 90.1,672.5 	"/>
	
		<linearGradient id="SVGID_11_" gradientUnits="userSpaceOnUse" x1="149.5" y1="333.25" x2="164.0276" y2="333.25" gradientTransform="matrix(1 0 0 -1 0 1080)">
		<stop  offset="0" style="stop-color:#19283F"/>
		<stop  offset="0.2075" style="stop-color:#202654"/>
		<stop  offset="0.4641" style="stop-color:#272468"/>
		<stop  offset="0.7263" style="stop-color:#2B2273"/>
		<stop  offset="1" style="stop-color:#2C2277"/>
	</linearGradient>
	<polygon class="st12" points="164,746.3 149.5,748.5 162.1,745 	"/>
	
		<linearGradient id="SVGID_12_" gradientUnits="userSpaceOnUse" x1="1298.3535" y1="269.55" x2="1314.2302" y2="269.55" gradientTransform="matrix(1 0 0 -1 0 1080)">
		<stop  offset="0" style="stop-color:#19283F"/>
		<stop  offset="0.2075" style="stop-color:#202654"/>
		<stop  offset="0.4641" style="stop-color:#272468"/>
		<stop  offset="0.7263" style="stop-color:#2B2273"/>
		<stop  offset="1" style="stop-color:#2C2277"/>
	</linearGradient>
	<path class="st13" d="M1314.2,762.2l-15.9,96.5c0-0.1,0-0.2,0-0.2L1314.2,762.2z"/>
	
		<linearGradient id="SVGID_13_" gradientUnits="userSpaceOnUse" x1="1314.1296" y1="318.45" x2="1314.3409" y2="318.45" gradientTransform="matrix(1 0 0 -1 0 1080)">
		<stop  offset="0" style="stop-color:#19283F"/>
		<stop  offset="0.2075" style="stop-color:#202654"/>
		<stop  offset="0.4641" style="stop-color:#272468"/>
		<stop  offset="0.7263" style="stop-color:#2B2273"/>
		<stop  offset="1" style="stop-color:#2C2277"/>
	</linearGradient>
	<path class="st14" d="M1314.2,762.2c0.1-0.4,0-0.9-0.1-1.3l0.2,0.6L1314.2,762.2z"/>
	
		<linearGradient id="SVGID_14_" gradientUnits="userSpaceOnUse" x1="1316.1935" y1="571.3" x2="1316.5155" y2="571.3" gradientTransform="matrix(1 0 0 -1 0 1080)">
		<stop  offset="0" style="stop-color:#19283F"/>
		<stop  offset="0.2075" style="stop-color:#202654"/>
		<stop  offset="0.4641" style="stop-color:#272468"/>
		<stop  offset="0.7263" style="stop-color:#2B2273"/>
		<stop  offset="1" style="stop-color:#2C2277"/>
	</linearGradient>
	<path class="st15" d="M1316.5,509c-0.1-0.2-0.2-0.4-0.3-0.6l0.2,0.2L1316.5,509z"/>
	
		<linearGradient id="SVGID_15_" gradientUnits="userSpaceOnUse" x1="1339.2484" y1="504.7" x2="1340.517" y2="504.7" gradientTransform="matrix(1 0 0 -1 0 1080)">
		<stop  offset="0" style="stop-color:#19283F"/>
		<stop  offset="0.2075" style="stop-color:#202654"/>
		<stop  offset="0.4641" style="stop-color:#272468"/>
		<stop  offset="0.7263" style="stop-color:#2B2273"/>
		<stop  offset="1" style="stop-color:#2C2277"/>
	</linearGradient>
	<path class="st16" d="M1339.2,576.7c0.8-0.7,1-1.9,0.7-2.8l0.6,1.6L1339.2,576.7z"/>
	
		<linearGradient id="SVGID_16_" gradientUnits="userSpaceOnUse" x1="1348.8933" y1="256.9" x2="1352.2759" y2="256.9" gradientTransform="matrix(1 0 0 -1 0 1080)">
		<stop  offset="0" style="stop-color:#19283F"/>
		<stop  offset="0.2075" style="stop-color:#202654"/>
		<stop  offset="0.4641" style="stop-color:#272468"/>
		<stop  offset="0.7263" style="stop-color:#2B2273"/>
		<stop  offset="1" style="stop-color:#2C2277"/>
	</linearGradient>
	<path class="st17" d="M1352.3,823.8c-1-0.8-2.4-0.7-3.4,0l1.7-1.4L1352.3,823.8z"/>
	
		<linearGradient id="SVGID_17_" gradientUnits="userSpaceOnUse" x1="1377.7673" y1="279.45" x2="1379.348" y2="279.45" gradientTransform="matrix(1 0 0 -1 0 1080)">
		<stop  offset="0" style="stop-color:#19283F"/>
		<stop  offset="0.2075" style="stop-color:#202654"/>
		<stop  offset="0.4641" style="stop-color:#272468"/>
		<stop  offset="0.7263" style="stop-color:#2B2273"/>
		<stop  offset="1" style="stop-color:#2C2277"/>
	</linearGradient>
	<path class="st18" d="M1379.1,802.3l-1.4-1.8l1.6-1.7C1378.4,799.8,1378.4,801.3,1379.1,802.3z"/>
	
		<linearGradient id="SVGID_18_" gradientUnits="userSpaceOnUse" x1="1420.0516" y1="389.55" x2="1425.1257" y2="389.55" gradientTransform="matrix(1 0 0 -1 0 1080)">
		<stop  offset="0" style="stop-color:#19283F"/>
		<stop  offset="0.2075" style="stop-color:#202654"/>
		<stop  offset="0.4641" style="stop-color:#272468"/>
		<stop  offset="0.7263" style="stop-color:#2B2273"/>
		<stop  offset="1" style="stop-color:#2C2277"/>
	</linearGradient>
	<path class="st19" d="M1425.1,693.4c-1.3-2.2-4.7-1.6-5.1,1l1-7.9L1425.1,693.4z"/>
	
		<linearGradient id="SVGID_19_" gradientUnits="userSpaceOnUse" x1="1440.7307" y1="398.25" x2="1445.9961" y2="398.25" gradientTransform="matrix(1 0 0 -1 0 1080)">
		<stop  offset="0" style="stop-color:#19283F"/>
		<stop  offset="0.2075" style="stop-color:#202654"/>
		<stop  offset="0.4641" style="stop-color:#272468"/>
		<stop  offset="0.7263" style="stop-color:#2B2273"/>
		<stop  offset="1" style="stop-color:#2C2277"/>
	</linearGradient>
	<path class="st20" d="M1446,686.8c-0.8-2.6-4.6-2.5-5.3,0.2l2.5-10.5L1446,686.8z"/>
	
		<linearGradient id="SVGID_20_" gradientUnits="userSpaceOnUse" x1="1453.114" y1="366.5" x2="1453.275" y2="366.5" gradientTransform="matrix(1 0 0 -1 0 1080)">
		<stop  offset="0" style="stop-color:#19283F"/>
		<stop  offset="0.2075" style="stop-color:#202654"/>
		<stop  offset="0.4641" style="stop-color:#272468"/>
		<stop  offset="0.7263" style="stop-color:#2B2273"/>
		<stop  offset="1" style="stop-color:#2C2277"/>
	</linearGradient>
	<path class="st21" d="M1453.2,714.1c0.1-0.4,0.1-0.8-0.1-1.2l0.2,0.6L1453.2,714.1z"/>
	
		<linearGradient id="SVGID_21_" gradientUnits="userSpaceOnUse" x1="1520.7284" y1="252.25" x2="1521.9062" y2="252.25" gradientTransform="matrix(1 0 0 -1 0 1080)">
		<stop  offset="0" style="stop-color:#19283F"/>
		<stop  offset="0.2075" style="stop-color:#202654"/>
		<stop  offset="0.4641" style="stop-color:#272468"/>
		<stop  offset="0.7263" style="stop-color:#2B2273"/>
		<stop  offset="1" style="stop-color:#2C2277"/>
	</linearGradient>
	<path class="st22" d="M1521,829l-0.3-1.5l1.2-1C1521.2,827.1,1520.8,828.1,1521,829z"/>
	
		<linearGradient id="SVGID_22_" gradientUnits="userSpaceOnUse" x1="1555.9653" y1="408.2" x2="1560.093" y2="408.2" gradientTransform="matrix(1 0 0 -1 0 1080)">
		<stop  offset="0" style="stop-color:#19283F"/>
		<stop  offset="0.2075" style="stop-color:#202654"/>
		<stop  offset="0.4641" style="stop-color:#272468"/>
		<stop  offset="0.7263" style="stop-color:#2B2273"/>
		<stop  offset="1" style="stop-color:#2C2277"/>
	</linearGradient>
	<path class="st23" d="M1560.1,673.7l-4.1-0.2l1.8-3.6C1556.9,671.6,1558.1,673.6,1560.1,673.7z"/>
	
		<linearGradient id="SVGID_23_" gradientUnits="userSpaceOnUse" x1="1655.6998" y1="308.35" x2="1912.4999" y2="308.35" gradientTransform="matrix(1 0 0 -1 0 1080)">
		<stop  offset="0" style="stop-color:#19283F"/>
		<stop  offset="0.2075" style="stop-color:#202654"/>
		<stop  offset="0.4641" style="stop-color:#272468"/>
		<stop  offset="0.7263" style="stop-color:#2B2273"/>
		<stop  offset="1" style="stop-color:#2C2277"/>
	</linearGradient>
	<path class="st24" d="M1879.1,864.5l-23.2-5l21.1,33l-79.5-65l-46.3-5l67.5,55l27.2,26l34.2,20h-65.4l2-20l-22.1,10l-18.1-36
		l-75.5-17l-45.3-58l18.1-130l-18.1-36l4-16.7c1.4,0.5,2.6,1.5,3.3,2.8c5.1,8.5,17,25.5,30.6,25.5c4.1,0,9,1.1,13.9,2.9
		c15.2,5.4,31.9,16.6,34.9,18.6c0.3,0.2,0.6,0.5,0.9,0.7l13.4,13l32.6,31.6c1.2,1.2,2.9,1.9,4.6,1.9h31.7c1.8,0,3.5,0.7,4.8,2
		l34.3,35.5l0,0c0.2,0.2,0.4,0.4,0.6,0.5l24,36.7l23.2,13l-24.2,36l24.2,52L1879.1,864.5z"/>
	
		<linearGradient id="SVGID_24_" gradientUnits="userSpaceOnUse" x1="1146.2" y1="519" x2="1168.3489" y2="519" gradientTransform="matrix(1 0 0 -1 0 1080)">
		<stop  offset="0" style="stop-color:#19283F"/>
		<stop  offset="0.2075" style="stop-color:#202654"/>
		<stop  offset="0.4641" style="stop-color:#272468"/>
		<stop  offset="0.7263" style="stop-color:#2B2273"/>
		<stop  offset="1" style="stop-color:#2C2277"/>
	</linearGradient>
	<polygon class="st25" points="1153.3,531.5 1146.2,557.5 1153.3,590.5 1153.3,564.5 1168.4,575.5 	"/>
	
		<linearGradient id="SVGID_25_" gradientUnits="userSpaceOnUse" x1="1039.5" y1="454" x2="1080.8" y2="454" gradientTransform="matrix(1 0 0 -1 0 1080)">
		<stop  offset="0" style="stop-color:#19283F"/>
		<stop  offset="0.2075" style="stop-color:#202654"/>
		<stop  offset="0.4641" style="stop-color:#272468"/>
		<stop  offset="0.7263" style="stop-color:#2B2273"/>
		<stop  offset="1" style="stop-color:#2C2277"/>
	</linearGradient>
	<polygon class="st26" points="1039.5,617.5 1053.6,605.5 1057.6,617.5 1064.7,598.5 1069.7,617.5 1080.8,635.5 1067.7,627.5 
		1060.6,653.5 1053.6,631.5 	"/>
	
		<linearGradient id="SVGID_26_" gradientUnits="userSpaceOnUse" x1="663.025" y1="496.0138" x2="706.1475" y2="496.0138" gradientTransform="matrix(1 0 0 -1 0 1080)">
		<stop  offset="0" style="stop-color:#19283F"/>
		<stop  offset="0.2075" style="stop-color:#202654"/>
		<stop  offset="0.4641" style="stop-color:#272468"/>
		<stop  offset="0.7263" style="stop-color:#2B2273"/>
		<stop  offset="1" style="stop-color:#2C2277"/>
	</linearGradient>
	<path class="st27" d="M663.1,598.3l12.9-22.7c0-0.1,0.1-0.2,0.1-0.3v-24c0-0.4,0.4-0.7,0.8-0.5l23.2,10.6c0.1,0.1,0.2,0.2,0.3,0.3
		l5.8,13.4c0.1,0.2,0,0.5-0.2,0.7l-11.7,7.7c0,0,0,0-0.1,0l-14.6,6.8c-0.3,0.1-0.4,0.4-0.3,0.7l5.7,18c0.1,0.3,0,0.6-0.3,0.7
		l-17,7.5c-0.3,0.1-0.7,0-0.8-0.4l-3.8-18.1C663,598.6,663,598.4,663.1,598.3z"/>
	
		<linearGradient id="SVGID_27_" gradientUnits="userSpaceOnUse" x1="562.4717" y1="394.3714" x2="611.1717" y2="394.3714" gradientTransform="matrix(1 0 0 -1 0 1080)">
		<stop  offset="0" style="stop-color:#19283F"/>
		<stop  offset="0.2075" style="stop-color:#202654"/>
		<stop  offset="0.4641" style="stop-color:#272468"/>
		<stop  offset="0.7263" style="stop-color:#2B2273"/>
		<stop  offset="1" style="stop-color:#2C2277"/>
	</linearGradient>
	<path class="st28" d="M581.8,647.3l-6.7,16.8l-3.4,9.9l-9.3,5.7l12.4,18.5l12.6-13.6l8.1,25.3l7.9,4.3l7.7,10.3l-8.5-43.3l-2-27.1
		C598,647.9,591.7,645.6,581.8,647.3z"/>
	
		<linearGradient id="SVGID_28_" gradientUnits="userSpaceOnUse" x1="350.6315" y1="390.8439" x2="371.2337" y2="390.8439" gradientTransform="matrix(1 0 0 -1 0 1080)">
		<stop  offset="0" style="stop-color:#19283F"/>
		<stop  offset="0.2075" style="stop-color:#202654"/>
		<stop  offset="0.4641" style="stop-color:#272468"/>
		<stop  offset="0.7263" style="stop-color:#2B2273"/>
		<stop  offset="1" style="stop-color:#2C2277"/>
	</linearGradient>
	<path class="st29" d="M360.5,673.4l-9.6,18.2c-0.3,0.6-0.3,1.2,0.1,1.8l7.2,11.6c1,1.6,3.4,0.9,3.4-0.9v-15.6
		c0-0.6,0.3-1.1,0.8-1.5l8.3-6c1-0.7,1-2.2,0-2.9l-7.3-5.3C362.2,672.1,361,672.4,360.5,673.4z"/>
	
		<linearGradient id="SVGID_29_" gradientUnits="userSpaceOnUse" x1="105.3" y1="363.3627" x2="259.2" y2="363.3627" gradientTransform="matrix(1 0 0 -1 0 1080)">
		<stop  offset="0" style="stop-color:#19283F"/>
		<stop  offset="0.2075" style="stop-color:#202654"/>
		<stop  offset="0.4641" style="stop-color:#272468"/>
		<stop  offset="0.7263" style="stop-color:#2B2273"/>
		<stop  offset="1" style="stop-color:#2C2277"/>
	</linearGradient>
	<path class="st30" d="M235.7,769.9l6.4,19.6L212.4,759l-10.6,3.5l-6,10l-9.1,9v14l-5,36l-7.6-38.5l-2.7-13.8l3.7-25.3l-11.1-7.7
		l-14.5,2.2v35L131.1,794l-6.4,3.7l-19.4,42.9l1-76l21.6-30.5l-13.1-35l18.6-45.5l-19.1-27l6-27.6c0.7-1,1.5-2.1,2.2-3.3
		s1.8-2,3-2.5c0.9-0.4,1.9-0.6,2.9-0.5c1.7,0.1,3.4,0.8,4.7,2.2c3,3.5,6.6,7,9.8,8.4c0.9,0.4,1.9,0.8,2.8,1.3
		c5.5,2.5,10.8,5.6,11.3,12.7c0,0.3,0,0.6,0,0.9c0,1.3,0.4,2.5,1.1,3.6c0.4,0.5,0.8,1.1,1.2,1.7c3,4.1,8.2,10.5,11.3,11.2
		c0.5,0.1,1,0.1,1.3-0.1c0.1,0,0.2-0.1,0.3-0.1c2.7-0.9,5.7,4.6,7.4,8.3l0.2,0.3c0.6,1.3,1.6,2.4,2.9,3.1l2.3,2.6
		c1,1.1,1.4,2.7,0.9,4.1v0.1l-6.3,19.6l7,16l25.2-16l-3.3-15.8c0.1,0.1,0.2,0.3,0.3,0.4l31.8,42.8c0.5,0.7,1.2,1.3,2,1.8l16.6,9.7
		l-44.3-5L235.7,769.9z"/>
	
		<linearGradient id="SVGID_30_" gradientUnits="userSpaceOnUse" x1="64.9417" y1="393.5" x2="90.1109" y2="393.5" gradientTransform="matrix(1 0 0 -1 0 1080)">
		<stop  offset="0" style="stop-color:#19283F"/>
		<stop  offset="0.2075" style="stop-color:#202654"/>
		<stop  offset="0.4641" style="stop-color:#272468"/>
		<stop  offset="0.7263" style="stop-color:#2B2273"/>
		<stop  offset="1" style="stop-color:#2C2277"/>
	</linearGradient>
	<polygon class="st31" points="74,686.5 83.1,696.5 70,711.5 70,696.5 64.9,679.5 75,668.5 70,661.5 90.1,672.5 	"/>
	
		<linearGradient id="SVGID_31_" gradientUnits="userSpaceOnUse" x1="1059.6" y1="352" x2="1180.4" y2="352" gradientTransform="matrix(1 0 0 -1 0 1080)">
		<stop  offset="0" style="stop-color:#19283F"/>
		<stop  offset="0.2075" style="stop-color:#202654"/>
		<stop  offset="0.4641" style="stop-color:#272468"/>
		<stop  offset="0.7263" style="stop-color:#2B2273"/>
		<stop  offset="1" style="stop-color:#2C2277"/>
	</linearGradient>
	<polygon class="st32" points="1131.1,672.5 1114,731.5 1180.4,783.5 1114,759.5 1059.6,771.5 1080.8,726.5 	"/>
	
		<linearGradient id="SVGID_32_" gradientUnits="userSpaceOnUse" x1="1271.1" y1="424.1513" x2="1615.2189" y2="424.1513" gradientTransform="matrix(1 0 0 -1 0 1080)">
		<stop  offset="0" style="stop-color:#19283F"/>
		<stop  offset="0.2075" style="stop-color:#202654"/>
		<stop  offset="0.4641" style="stop-color:#272468"/>
		<stop  offset="0.7263" style="stop-color:#2B2273"/>
		<stop  offset="1" style="stop-color:#2C2277"/>
	</linearGradient>
	<path class="st33" d="M1615.2,744.1c0.1,0.8-0.2,1.6-0.8,2.2l0,0l0,0l-92.4,80.1c-0.7,0.6-1.1,1.6-0.9,2.5l20.2,96.6
		c0.4,2.6-2.8,4.3-4.7,2.3l-24.2-31.8c-0.9-1-2.4-1.1-3.5-0.3h-0.1l-10.2,7.4c-1.5,1.1-1.5,3.3,0,4.3l0,0l0,0l0.5,0.3l0,0l12.1,5
		l-5,7l-2-5l-7-2v-0.1l-23.7,1.7c-1.2-0.1-2.2-0.9-2.5-2l-7.5-42.8l0,0l0,0c0-0.2-0.1-0.3-0.2-0.5l0,0l0,0c0,0,0,0,0-0.1l-24.8-47.5
		l-0.3-0.6l-2.5-4.9c-0.2-0.4-0.3-0.9-0.3-1.4v-0.2l0,0l17.9-100.5c0.1-0.4,0.1-0.8-0.1-1.2l-7.1-26l0,0l0,0v-0.1
		c-0.8-2.6-4.6-2.5-5.3,0.2l-5.6,23.5l-10-17.1c-1.3-2.2-4.7-1.6-5.1,1l-9,70.2c-0.1,0.6-0.3,1.1-0.7,1.5l-31,32.7
		c-0.9,1-1,2.4-0.2,3.5l51.1,67.9c0.5,0.7,3.4,2.7,0.4,2.5l0,0l0,0l0,0l-17.6,51.3c-1.1,2.7-5,2-5.3-0.8l2-13.1v-0.1l-0.7-35.7
		c0-0.6-0.3-1.3-0.7-1.8l-15.3-17.1c-0.1-0.1-0.2-0.2-0.3-0.3l0,0l0,0l-40.4-31.5c-1-0.8-2.4-0.7-3.4,0l0,0l-46.1,37.1l0,0l0,0
		l-0.2,0.1c-10.9,13.9-4.4-0.2-4.3-2.5c0-0.1,0-0.2,0-0.2l15.8-96.3c0.1-0.4,0-0.9-0.1-1.3l-39.5-119.8l0,0c-0.3-1,0-2,0.7-2.8
		l63.9-61.6c0.8-0.7,1-1.9,0.7-2.8l-23.4-64.9c-0.1-0.2-0.2-0.4-0.3-0.6l-0.2-0.2l-44.3-52.8c-0.4-0.5-0.6-1.1-0.6-1.7v-0.2l0,0
		l5.7-69.1h0.1c2.7-1.3,5.8-0.7,7.8,1.5c0.1,0.1,0.2,0.1,0.2,0.2c10.5,12.6,43.2,50.4,54.1,46l0,0c3.7-1.5,9.6,0.3,16.3,3.6
		c14.6,7.2,32.5,21.8,37,25.5c0.7,0.6,1.2,1.3,1.7,2.1c0.9,1.7,6.5,8.9,14.8,18.8c26.7,31.8,80.8,90.9,92.3,83l0.2-0.3l24.7,25
		c0.1,0.1,0.3,0.4,0.5,0.5l43.9,50.4c0.5,0.5,0.7,1.2,0.7,1.8l0,0c0,0.4-0.1,0.8-0.3,1.1l-13,26.2l0,0c-0.8,1.7,0.4,3.8,2.3,3.9
		l48.9,1.6c1.4,0.1,2.5,1.1,2.6,2.5L1615.2,744.1z"/>
</g>
<g id="front_shadow">
	<path class="st3" d="M1361,658c-21,18-27,40-27,40l14,32l12-36l5,16l6-31L1361,658z"/>
	<path class="st3" d="M827.3,555.3l19.8,13.3l23.8-2.8l-6.1,21.4l26.4,0.7l-22.1,9.4c0,0-4.7,24.8,2.6,23.9l-22.8-15.3l-13.7-32.2
		l-6.5,18l-5.5-12.9L808,555.9l0.9-28.6C808.9,527.3,809.3,541.2,827.3,555.3z"/>
	<path class="st3" d="M211.9,672.5l-25.2,16l-7-16l6.3-19.6v-0.1c0.4-1.4,0.1-3-0.9-4.1l-2.3-2.6c0.5,0.3,1,0.5,1.6,0.6
		c5.2,1.2,15.7,4.1,23.1,9.1c0.4,0.3,0.8,0.6,1.2,1l0,0L211.9,672.5z"/>
	<polygon class="st3" points="1370,475 1389,493 1370,493 	"/>
	<path class="st3" d="M1470.5,638.4c0,0,17.8-20.2,22.5-18.6c4.7,1.7,12.8,7.5,12.8,7.5l-2.8,14.5l14.5,22.7l-19.6,0.9
		c0,0-12,15.3-6.6,15.7C1496.6,681.5,1470.5,638.4,1470.5,638.4z"/>
	<polygon class="st3" points="150,724 141,732 141,741 135,733 139,728 	"/>
	<path class="st3" d="M180,747c0,0,3,3,2,5l-1,6l7-8L180,747z"/>
	<path class="st3" d="M176,692l8,8l7-5l-8,11l3,7c0,0-15-15-14-17S176,692,176,692z"/>
	<path class="st3" d="M141,611c0,0-3,6,0,9s13,9,13,9l-16-4l-3-5L141,611z"/>
</g>
<path class="st34" d="M1479.4,347.8l-0.2,0.1c0,0-0.1,0.1-0.1,0.1l0.1,0.2c0,0.1-0.1,0.2-0.2,0.1l0,0c-0.1,0-0.2,0-0.2,0.1l-0.1,0.2
	c0,0.1-0.2,0.1-0.2,0l-0.1-0.2c0-0.1-0.1-0.1-0.2-0.1l0,0c-0.1,0.1-0.2,0-0.2-0.1l0.1-0.3c0-0.1,0-0.1-0.1-0.1l-0.2-0.1
	c-0.1,0-0.1-0.2,0-0.2l0.2-0.1c0,0,0.1-0.1,0.1-0.1l-0.1-0.2c0-0.1,0.1-0.2,0.2-0.1l0,0c0.1,0,0.2,0,0.2-0.1l0.1-0.2
	c0-0.1,0.2-0.1,0.2,0l0,0.2c0,0.1,0.1,0.1,0.2,0.1l0.1-0.1c0.1-0.1,0.2,0,0.2,0.1l-0.1,0.3c0,0.1,0,0.1,0.1,0.1l0.2,0.1
	C1479.4,347.6,1479.4,347.8,1479.4,347.8z"/>
<path class="st34" d="M1275.8,140.3l-0.7,0.4c-0.1,0.1-0.2,0.3-0.2,0.4l0.2,0.5c0.1,0.3-0.3,0.6-0.5,0.4l0,0
	c-0.2-0.1-0.5-0.1-0.5,0.2l-0.2,0.6c-0.1,0.3-0.6,0.3-0.7,0l-0.2-0.6c-0.1-0.2-0.3-0.3-0.5-0.2l-0.1,0.1c-0.3,0.2-0.6-0.1-0.5-0.4
	l0.2-0.8c0-0.2,0-0.3-0.2-0.4l-0.6-0.3c-0.3-0.1-0.3-0.5,0-0.6l0.7-0.4c0.1-0.1,0.2-0.3,0.1-0.4l-0.2-0.5c-0.1-0.3,0.2-0.6,0.5-0.4
	l0,0c0.2,0.1,0.5,0,0.5-0.2l0.2-0.5c0.1-0.3,0.6-0.3,0.7,0l0.1,0.5c0.1,0.2,0.3,0.3,0.5,0.2l0.3-0.2c0.3-0.2,0.6,0.1,0.5,0.4l-0.2,1
	c0,0.2,0,0.3,0.2,0.4l0.5,0.2C1276,139.8,1276.1,140.1,1275.8,140.3z"/>
<polygon class="st34" points="1212.6,202.1 1211.7,202.6 1212.1,203.8 1211.4,203.2 1211,204.5 1210.6,203.2 1209.8,203.8 
	1210.2,202.5 1209.4,202.1 1210.2,201.5 1209.8,200.3 1210.6,200.9 1211,199.6 1211.3,200.9 1212.1,200.3 1211.8,201.7 "/>
<path class="st34" d="M993.5,323.4l-0.2,0.2c-0.1,0.1-0.2,0.6-0.1,0.9l0,0c0.1,0.6-0.1,1.2-0.3,0.9l0,0c-0.1-0.2-0.3,0-0.3,0.3
	l-0.2,0.9c-0.1,0.5-0.4,0.5-0.5,0l-0.2-0.8c-0.1-0.3-0.2-0.5-0.3-0.3l-0.1,0.2c-0.2,0.3-0.4-0.3-0.3-0.8l0.1-0.4
	c0.1-0.4,0-0.8-0.2-0.9l-0.1-0.1c-0.2-0.2-0.2-1,0-1.2l0.2-0.2c0.1-0.2,0.2-0.6,0.1-0.9l0,0c-0.1-0.6,0.1-1.2,0.3-0.9l0,0
	c0.1,0.2,0.3,0,0.3-0.3l0.1-0.7c0.1-0.5,0.4-0.5,0.5,0l0.1,0.6c0.1,0.3,0.2,0.5,0.3,0.4l0.3-0.3c0.2-0.2,0.4,0.3,0.3,0.8l-0.1,0.7
	c0,0.3,0,0.7,0.2,0.8l0.1,0.1C993.7,322.3,993.7,323.1,993.5,323.4z"/>
<circle class="st34" cx="638.1" cy="401.9" r="1.7"/>
<circle class="st34" cx="950.2" cy="48.8" r="1.7"/>
<circle class="st34" cx="1656.8" cy="221" r="1.1"/>
<circle class="st34" cx="773.8" cy="222" r="1.5"/>
</svg>
