<?xml version="1.0" encoding="utf-8"?>
<!-- Generator: Adobe Illustrator 24.0.3, SVG Export Plug-In . SVG Version: 6.00 Build 0)  -->
<svg version="1.1" id="Layer_1" xmlns="http://www.w3.org/2000/svg" xmlns:xlink="http://www.w3.org/1999/xlink" x="0px" y="0px"
	 viewBox="0 0 200 200" style="enable-background:new 0 0 200 200;" xml:space="preserve">
<style type="text/css">
	.st0{fill:#FFFFFF;}
</style>
<g id="tjbx7j.tif">
	<g>
		<path class="st0" d="M105.2,193c-3.3,0-6.7,0-10,0c-0.2-0.1-0.4-0.2-0.6-0.2c-3.7-0.5-7.5-0.7-11.2-1.4
			C31.5,182-2.2,130.6,9.7,79.3c14.4-62.2,86.1-91.8,140-57.6c24.1,15.3,38.1,37.5,42.4,65.7c0.4,2.5,0.6,5.1,0.9,7.7
			c0,3.3,0,6.7,0,10c-0.1,0.5-0.2,1-0.3,1.6c-0.9,13.2-4.4,25.7-10.8,37.3c-14.7,26.4-37,42.4-66.8,47.7
			C111.8,192.3,108.5,192.6,105.2,193z M100.1,177.7c42.8,0,77.6-34.8,77.7-77.6c0-42.7-34.8-77.6-77.4-77.6
			c-42.8-0.1-77.8,34.8-77.7,77.6C22.6,142.9,57.4,177.7,100.1,177.7z"/>
		<path class="st0" d="M157.6,100.2c0,5.5,0,11,0,16.5c0,2.4-0.9,4.2-3,5.5c-17,11.3-34,22.7-51.1,34c-2.6,1.7-4.2,1.7-6.8,0
			c-17-11.3-34-22.7-51.1-34c-2.1-1.4-2.9-3.1-2.9-5.6c0-11,0-22,0-33c0-2.5,0.9-4.3,3-5.7c17-11.2,33.9-22.5,50.8-33.8
			c2.9-1.9,4.3-1.9,7.2,0c16.9,11.3,33.8,22.6,50.8,33.8c2.1,1.4,3,3.2,3,5.7C157.5,89.2,157.6,94.7,157.6,100.2z M95.2,56.9
			c-13.1,8.7-25.8,17.2-38.6,25.8c5.7,3.8,11.2,7.5,16.7,11.1c0.3,0.2,1.1,0.1,1.5-0.2c6.5-4.3,12.9-8.6,19.4-13
			c0.5-0.4,1-1.3,1-1.9c0.1-3.7,0-7.5,0-11.2C95.2,64.1,95.2,60.7,95.2,56.9z M143.7,82.7c-12.9-8.6-25.6-17.1-38.4-25.6
			c-0.1,0.4-0.2,0.6-0.2,0.7c0,7.1,0,14.2,0,21.2c0,0.5,0.5,1.3,1,1.6c6.4,4.3,12.8,8.6,19.2,12.9c0.9,0.6,1.4,0.5,2.3,0
			c3.8-2.6,7.6-5.1,11.4-7.7C140.6,84.8,142.1,83.8,143.7,82.7z M94.9,143.2c0.2-0.3,0.2-0.4,0.2-0.5c0-7.2,0-14.4,0-21.5
			c0-0.5-0.4-1.1-0.9-1.4c-6.5-4.4-13.1-8.8-19.7-13.1c-0.4-0.3-1.2-0.2-1.6,0c-2.6,1.6-5,3.3-7.6,5c-2.9,1.9-5.8,3.9-8.9,5.9
			C69.4,126.2,82.1,134.7,94.9,143.2z M143.7,117.6c-5.7-3.8-11.1-7.5-16.6-11.1c-0.4-0.2-1.2,0-1.6,0.2
			c-6.4,4.2-12.7,8.5-19.1,12.7c-0.9,0.6-1.2,1.3-1.2,2.4c0,6.5,0,13.1,0,19.6c0,0.5,0.1,1,0.1,1.8
			C118.1,134.7,130.8,126.2,143.7,117.6z M117.6,100.1c-5.7-3.8-11.3-7.5-16.8-11.2c-0.3-0.2-1.1-0.1-1.5,0.2
			c-3.2,2.1-6.3,4.2-9.4,6.3c-2.3,1.5-4.6,3.1-7.1,4.7c5.7,3.8,11.3,7.5,16.9,11.2c0.3,0.2,1.1,0.1,1.5-0.2c3.3-2.1,6.5-4.3,9.7-6.4
			C113,103.2,115.2,101.7,117.6,100.1z M65,100.1c-4.2-2.8-8.1-5.4-12.2-8.1c0,5.5,0,10.8,0,16.3C56.9,105.5,60.8,102.9,65,100.1z
			 M147.6,108.3c0-5.6,0-10.8,0-16.4c-4.2,2.8-8.1,5.4-12.2,8.2C139.5,102.9,143.4,105.5,147.6,108.3z"/>
	</g>
</g>
</svg>
