<?xml version="1.0" encoding="utf-8"?>
<!-- Generator: Adobe Illustrator 24.0.3, SVG Export Plug-In . SVG Version: 6.00 Build 0)  -->
<svg version="1.1" id="Layer_1" xmlns="http://www.w3.org/2000/svg" xmlns:xlink="http://www.w3.org/1999/xlink" x="0px" y="0px"
	 viewBox="0 0 200 200" style="enable-background:new 0 0 200 200;" xml:space="preserve">
<style type="text/css">
	.st0{fill:#FFFFFF;}
</style>
<g id="y1yNWd_1_">
	<g>
		<path class="st0" d="M41.5,49.9c39.4,0,78.4,0,117.8,0c-0.3,5-0.5,9.6-0.8,14.3c-1.2,17.8-2.4,35.6-3.6,53.3
			c-1.2,17.9-2.5,35.8-3.8,53.6c-0.1,0.9-1.2,2.3-2,2.6c-15.9,4.8-31.9,9.5-47.8,14.1c-1.1,0.3-2.5,0.1-3.6-0.2
			c-15.2-4.7-30.3-9.5-45.5-14.1c-2-0.6-2.6-1.6-2.8-3.5c-1.1-16.5-2.2-33.1-3.3-49.6c-1.2-17.9-2.4-35.8-3.5-53.7
			C42.1,61.1,41.8,55.5,41.5,49.9z M83.5,105.1c0,5.7,0,10.7,0,16c12.1,0,23.9,0,36,0c-0.8,6.6-1.5,12.8-2.3,19.1
			c-0.1,0.7-1,1.5-1.7,1.7c-4.5,1.3-9,2.6-13.6,3.7c-1,0.2-2.1,0.2-3.1-0.1c-4.5-1.4-8.9-3-13.5-4.2c-2.2-0.6-2.8-1.8-2.7-3.9
			c0.1-2.8,0-5.6,0-8.4c-5.3,0-10.1,0-15.3,0c0.5,7.6,1,14.9,1.6,22.2c0.1,0.7,1.2,1.6,2,1.9c9,2.7,18,5.4,27.1,8
			c1.2,0.3,2.6,0.4,3.7,0.1c9.1-2.7,18.2-5.5,27.3-8.5c0.8-0.3,1.7-1.5,1.9-2.4c0.6-4.1,0.9-8.3,1.4-12.5
			c1.4-13.5,2.8-27.1,4.1-40.6c0.7-6.7,1.3-13.5,2-20.7c-25.4,0-50.5,0-75.8,0c0.3,4.5,0.6,8.9,0.9,13.6c19.7,0,39.2,0,58.8,0
			c-0.7,5-1.4,9.7-2.1,15C107.9,105.1,95.7,105.1,83.5,105.1z"/>
	</g>
</g>
<g id="_x33_vPWPD_1_">
	<g>
		<path class="st0" d="M114.4,13c-0.2,2.5-0.4,4.9-0.6,7.8c-5.5,0-10.9,0-16.2,0c-2.2,0-3.4,0.6-2.3,3.3c6,0,12.1,0,18.5,0
			c0,5.3,0,10.4,0,15.7c-8.7,0-17.3,0-26.1,0c0-1.9,0-3.7,0-6c6.1,0,12,0,18.2,0c0.1-1.6,0.2-2.8,0.3-4.2c-6.2,0-12.2,0-18.7,0
			c0-5.7,0-11.1,0-16.6C96.4,13,105.4,13,114.4,13z"/>
		<path class="st0" d="M143.7,13c0,2.5,0,4.9,0,7.8c-5.8,0-11.3,0-16.8,0c-2.3,0-3.3,0.7-2.2,3.4c6.1,0,12.3,0,18.7,0
			c0,5.4,0,10.4,0,15.7c-8.7,0-17.3,0-26.1,0c0-2,0-3.8,0-6c5.9,0,11.8,0,17.8,0c0.1-1.6,0.2-2.8,0.3-4.3c-6.1,0-11.9,0-18.1,0
			c0-5.7,0-11.2,0-16.6C126.2,13,134.9,13,143.7,13z"/>
		<path class="st0" d="M84.4,13c0,2.6,0,5.2,0,8.2c-6.1,0-11.9,0-18,0c0,4.1,0,7.9,0,12c5.9,0,11.7,0,17.8,0c0,2.4,0,4.4,0,6.6
			c-8.6,0-17.1,0-26,0c0-8.9,0-17.9,0-26.8C66.9,13,75.7,13,84.4,13z"/>
	</g>
</g>
</svg>
