<?xml version="1.0" encoding="utf-8"?>
<!-- Generator: Adobe Illustrator 24.0.3, SVG Export Plug-In . SVG Version: 6.00 Build 0)  -->
<svg version="1.1" id="Layer_1" xmlns="http://www.w3.org/2000/svg" xmlns:xlink="http://www.w3.org/1999/xlink" x="0px" y="0px"
	 viewBox="0 0 200 200" style="enable-background:new 0 0 200 200;" xml:space="preserve">
<style type="text/css">
	.st0{fill:none;stroke:#000000;stroke-miterlimit:10;}
	.st1{fill:#404040;}
</style>
<path class="st0" d="M91.6,33.2"/>
<g id="E5oqj9.tif">
	<g>
		<path class="st1" d="M188.3,107.2c-0.7,4.4-1,9-2.1,13.3c-7.7,30.9-26.3,52.2-56.1,63.5c-0.6,0.2-1.1,0.4-1.7,0.5
			c-3.7,0.7-5.8-1-5.8-4.8c0-7.7,0-15.4,0-23.1c0-3.8-0.3-7.6-2-11.1c-0.9-1.9-2.2-3.6-3.3-5.4c3.4-0.7,6.9-1.2,10.4-2
			c8.9-2.3,16.8-6.3,22.1-14.1c4.2-6.2,6-13.3,6.6-20.6c0.7-7.3,0.5-14.5-2.9-21.2c-1.3-2.6-3.1-5.1-4.8-7.5c-0.6-0.9-1-1.5-0.6-2.6
			c2.5-7.1,1.5-14-1-20.8c-0.2-0.5-1-1.2-1.5-1.1c-2.3,0.2-4.7,0.2-6.8,1.1c-5,2.1-9.7,4.8-14.6,7.1c-0.9,0.4-2,0.7-2.9,0.5
			c-10.1-2.5-20.3-3-30.6-1.8c-3.2,0.4-6.4,1.1-9.6,1.8c-1.3,0.3-2.3,0.2-3.5-0.6C72,54.7,66.2,52,59.9,50.5c-0.1,0-0.3-0.1-0.4-0.1
			c-4-0.8-4.8-0.3-5.9,3.5c-1.8,6.3-2.2,12.5,0,18.8c0.2,0.5,0.1,1.2-0.2,1.6c-10.9,13-10,27.5-5.2,42.3
			c4.1,12.5,13.8,18.7,25.9,21.8c3.4,0.9,6.9,1.4,10.5,2.1c-3,3.1-4.6,6.8-5.3,11c-0.1,0.4-0.8,0.9-1.3,1.1
			c-9.9,3.5-18.2,2.3-23.9-7.3c-3-5-7.2-8.5-13.1-9.3c-1.4-0.2-2.9,0.6-4.4,0.9c0.8,1.2,1.4,2.8,2.5,3.5c5,3.1,8.2,7.5,10.2,12.9
			c2.7,7.2,8.2,10.7,15.4,11.3c4.7,0.4,9.5,0.1,14.4,0.1c0,5.4,0.1,11,0,16.6c-0.1,2.4-2.5,4.2-5.1,3.4c-3.5-1-7.1-2.2-10.4-3.8
			c-27.6-13.7-44.8-35.7-49.1-66.2c-4.8-33.2,6.5-60.9,32.7-82.1c14.2-11.4,30.7-17.5,48.9-18.3c0.6,0,1.2-0.2,1.8-0.3c2,0,4,0,6,0
			c3,0.3,6.1,0.4,9.1,0.9c18.6,2.6,34.7,10.4,48.2,23.3c13.7,13,22.3,28.8,25.7,47.5c0.6,3.4,1,6.9,1.5,10.4
			C188.3,99.8,188.3,103.5,188.3,107.2z"/>
	</g>
</g>
</svg>
