<?xml version="1.0" encoding="utf-8"?>
<!-- Generator: Adobe Illustrator 24.0.3, SVG Export Plug-In . SVG Version: 6.00 Build 0)  -->
<svg version="1.1" id="Layer_1" xmlns="http://www.w3.org/2000/svg" xmlns:xlink="http://www.w3.org/1999/xlink" x="0px" y="0px"
	 viewBox="0 0 200 200" style="enable-background:new 0 0 200 200;" xml:space="preserve">
<style type="text/css">
	.st0{fill:#FFFFFF;}
</style>
<g id="WViPZR_1_">
	<g>
		<path class="st0" d="M99.1,194c-9.6-2.8-19.2-5.7-28.9-8.4c-7.2-2-14.3-4-21.5-5.9c-2.3-0.6-3.3-1.8-3.5-4.3
			c-2.4-27.5-4.9-55.1-7.3-82.6c-1.4-15.7-2.8-31.4-4.1-47.1c0-0.4,0.1-0.8,0.2-1.4c43.8,0,87.5,0,131.4,0
			c-0.9,10.4-1.7,20.5-2.6,30.7c-1.3,14.2-2.6,28.3-3.9,42.5c-1.6,17.3-3.1,34.7-4.7,52c0,0.1-0.1,0.3-0.1,0.4
			c1.3,7.7-3.1,9.9-9.7,11.5c-14.2,3.4-28.2,7.6-42.3,11.6c-0.8,0.2-1.4,0.7-2.1,1C99.6,194,99.3,194,99.1,194z M76.5,88.5
			c8,0,15.3,0,22.6,0c12.5,0,24.9,0.1,37.4,0c1.2,0,3.2-1.3,3.4-2.2c0.8-4.9,1.1-9.8,1.5-15.1c-1.7-0.1-3.1-0.3-4.4-0.3
			c-25.1,0-50.1,0.1-75.2,0.1c-0.6,0-1.3-0.2-1.6,0.1c-0.9,0.8-2.4,1.9-2.3,2.8c1.1,14.9,2.5,29.7,3.8,44.6c0.2,2.6,1.2,3.5,3.9,3.5
			c10.1-0.1,20.2-0.1,30.3-0.1c7.7,0,15.4,0,23.3,0c-0.4,6.5-0.7,12.4-1.4,18.3c-0.1,1.1-1.4,2.7-2.5,3.1
			c-9.3,3.5-18.7,5.8-28.4,1.2c-0.2-0.1-0.5-0.2-0.8-0.2c-3.9-0.4-5.8-2.1-5.4-6.4c0.2-2.5-0.5-5.1-0.9-7.7c-5.8,0-11.2,0-17,0
			c0.7,7.9,1.5,15.3,1.9,22.7c0.2,2.5,0.9,3.6,3.4,4.2c9.7,2.5,19.4,5.4,29.1,8c1.3,0.3,2.8,0.5,4,0.1c10.1-2.7,20.2-5.5,30.3-8.4
			c1.1-0.3,2.4-2,2.5-3.1c1.2-11.9,2.3-23.9,3.4-35.9c0.4-4.2,0.6-8.5,0.9-13.2c-20.5,0-40.5,0-60.5,0
			C77.3,99.1,76.9,94.2,76.5,88.5z"/>
		<path class="st0" d="M129,7c0,8.1,0,16.3,0,24.7c-2.7,0-5.2,0-8.1,0c0-3.5,0-7,0-11.8c-2.4,3.4-4,5.7-6,8.5
			c-1.8-2.7-3.4-5-5.6-8.2c0,4.3,0,7.7,0,11.5c-3,0-5.5,0-8.5,0c0-8.2,0-16.5,0-24.7c3,0,6.1,0,9.1,0c1.6,2.8,3.1,5.6,5.1,9.3
			c1.9-3.7,3.4-6.5,4.8-9.3C122.9,7,125.9,7,129,7z"/>
		<path class="st0" d="M70,7c0,8.1,0,16.3,0,24.7c-2.7,0-5.2,0-8.2,0c0-2.5,0-5,0-7.8c-2.7,0-5,0-7.6,0c0,2.6,0,5,0,7.8
			c-2.9,0-5.4,0-8.3,0c0-8.2,0-16.5,0-24.7c2.8,0,5.5,0,8.3,0c0,2.7,0,5.4,0,8.1c2.7,0,5,0,7.5,0c0-2.9,0-5.5,0-8.1
			C64.4,7,67.2,7,70,7z"/>
		<path class="st0" d="M96.6,7c0.2,2.6,0.4,5.2,0.6,8.3c-2.6,0-4.9,0-7.6,0c0,5.8,0,11.1,0,16.6c-2.9,0-5.3,0-8.2,0
			c0-5.5,0-10.8,0-16.3c-2.6-0.1-4.7-0.2-7.3-0.3c0-2.8,0-5.5,0-8.2C81.6,7,89.1,7,96.6,7z"/>
		<path class="st0" d="M141.5,7c0,5.5,0,11,0,16.9c4.3,0,8,0,11.9,0c0,2.9,0,5.3,0,7.9c-6.6,0-13,0-20.2,0c0-8.4,0-16.6,0-24.8
			C135.9,7,138.7,7,141.5,7z"/>
	</g>
</g>
</svg>
