<?xml version="1.0" encoding="utf-8"?>
<!-- Generator: Adobe Illustrator 24.0.3, SVG Export Plug-In . SVG Version: 6.00 Build 0)  -->
<svg version="1.1" id="Layer_1" xmlns="http://www.w3.org/2000/svg" xmlns:xlink="http://www.w3.org/1999/xlink" x="0px" y="0px"
	 viewBox="0 0 200 200" style="enable-background:new 0 0 200 200;" xml:space="preserve">
<style type="text/css">
	.st0{fill:#FFFFFF;}
</style>
<g id="uSx3u9_1_">
	<g>
		<path class="st0" d="M178.6,181H20.4c-1.3,0-2.4-1-2.4-2.4V20.4c0-1.3,1-2.4,2.4-2.4h158.3c1.3,0,2.4,1,2.4,2.4v158.3
			C181,180,180,181,178.6,181z M116.3,149.7c-1.2,0.7-1.5,2.3-0.7,3.4c1.1,1.7,2.2,3.1,3.5,4.4c8.3,8.5,18.7,10,29.8,8
			c8.7-1.6,15.2-6.4,17.1-15.5c2.1-10.2-1.4-18-10.3-23.4c-3.3-2-6.9-3.5-10.3-5.2c-2.5-1.2-5.1-2.3-7.5-3.6c-3.5-2-4.7-5.1-3.7-8.2
			c1-2.8,4-4.9,7.7-3.8c2.8,0.8,5.3,2.7,8.4,4.5c0.8,0.4,1.7,0.4,2.5,0c2.2-1.4,4.8-3.1,7.4-4.8c1-0.7,1.4-2.2,0.7-3.2
			c-4.5-7.1-11.1-9.8-19.2-10.2c-10.4-0.4-19.1,5-21.9,13.8c-3.1,9.5,0.5,19.2,9.4,24.7c3.1,1.9,6.6,3.3,10,5
			c2.8,1.4,5.7,2.6,8.4,4.2c2.5,1.4,3.8,3.7,3.4,6.6c-0.3,3-2.4,4.6-5.1,5.6c-5.8,2.1-12.5,0.2-16.6-4.8c-0.5-0.6-1-1.2-1.5-1.8
			c-0.7-1-2-1.1-3.1-0.6C122,146.4,119.2,148.1,116.3,149.7z M63.9,151.2c-1,0.6-1.4,1.9-0.9,3.1c3.4,7.2,10.9,11.6,20.7,12
			c13.8,0.6,22.5-7.1,22.8-20.7c0.3-16.6,0.2-33.3,0.2-50l0,0c0-1.2-1-2.2-2.4-2.2H93.9c-1.3,0-2.4,1-2.4,2.4c0,6.7,0,13.3,0,19.9
			c0,9.3,0,18.6,0,27.9c0,5.3-1.5,7.8-4.7,8.8c-4.1,1.3-7.7-0.1-10.5-4.2c-0.3-0.4-0.5-0.8-0.8-1.2c-0.7-1-2.1-1.3-3.1-0.7
			C69.4,147.9,66.6,149.6,63.9,151.2z"/>
	</g>
</g>
</svg>
