<?xml version="1.0" encoding="utf-8"?>
<!-- Generator: Adobe Illustrator 24.0.3, SVG Export Plug-In . SVG Version: 6.00 Build 0)  -->
<svg version="1.1" id="Layer_1" xmlns="http://www.w3.org/2000/svg" xmlns:xlink="http://www.w3.org/1999/xlink" x="0px" y="0px"
	 viewBox="0 0 200 200" style="enable-background:new 0 0 200 200;" xml:space="preserve">
<style type="text/css">
	.st0{fill:#FFFFFF;}
</style>
<g id="KTHkz6.tif">
	<g>
		<path class="st0" d="M23,163.4c0-42.5,0-85,0-127.5c0.1-0.3,0.3-0.6,0.3-1c0.9-3.8,2.8-7,6.2-9.1c2.1-1.3,4.5-2,6.8-2.9
			c42.4,0,84.8,0,127.2,0c0.1,0.1,0.2,0.2,0.4,0.2c8.1,1.8,12.9,7.7,12.9,15.8c0,40.6,0,81.2,0,121.9c0,9.1-6.7,15.8-15.8,15.8
			c-5,0-9.9,0-14.9,0c-35.7,0-71.4,0-107.1,0c-7.2,0-13-4.1-15.1-10.7C23.5,165.2,23.2,164.3,23,163.4z M153.5,153.6
			c0-0.5,0.1-0.9,0.1-1.3c0-14,0-27.9,0-41.9c0-7.7-2.7-14.5-8.4-19.8c-9.3-8.8-22.7-11-34-1.2c-1.3,1.1-2.4,2.5-3.8,3.9
			c0-3.1,0-5.9,0-8.7c-7.8,0-15.4,0-22.9,0c0,23,0,46,0,68.9c7.7,0,15.3,0,23,0c0-0.8,0-1.4,0-2.1c0-12.5,0-24.9,0-37.4
			c0-0.9,0-1.8,0.1-2.7c0.8-6.2,7.1-10.9,13.3-9.8c5.6,1,9.6,5.9,9.6,11.8c0,12.8,0,25.6,0,38.4c0,0.6,0,1.2,0,1.8
			C138.3,153.6,145.8,153.6,153.5,153.6z M46.2,84.5c0,23.1,0,46.1,0,69c7.7,0,15.2,0,22.8,0c0-23.1,0-46,0-69
			C61.4,84.5,53.8,84.5,46.2,84.5z M57.5,43.8c-7.6,0-13.7,6.1-13.7,13.6c0,7.9,6.2,14.1,13.9,14.1c7.5-0.1,13.7-6.2,13.8-13.7
			C71.5,50,65.2,43.7,57.5,43.8z"/>
	</g>
</g>
</svg>
