<?xml version="1.0" encoding="utf-8"?>
<!-- Generator: Adobe Illustrator 24.0.3, SVG Export Plug-In . SVG Version: 6.00 Build 0)  -->
<svg version="1.1" id="Layer_1" xmlns="http://www.w3.org/2000/svg" xmlns:xlink="http://www.w3.org/1999/xlink" x="0px" y="0px"
	 viewBox="0 0 448 149" style="enable-background:new 0 0 448 149;" xml:space="preserve">
<style type="text/css">
	.st0{fill:#8353EF;}
	.st1{fill:#FFFFFF;}
	.st2{fill:none;stroke:#FFFFFF;stroke-width:7;stroke-miterlimit:10;}
</style>
<polygon class="st0" points="187.1,7 9,141 187.1,141 "/>
<g>
	<path class="st1" d="M87.8,59.5c0,19.2-14.6,31.3-38.7,31.3H35.4v33.9H21.9V29h27.2C73.3,29,87.8,40.8,87.8,59.5z M73.7,59.5
		c0-12.7-9-19.8-25.2-19.8H35.4v40.2h13.1C64.7,79.9,73.7,72.6,73.7,59.5z"/>
	<path class="st1" d="M171.5,29v95.7h-13.2V82.8H122v41.9h-13.4V29H122v43.1h36.2V29H171.5z"/>
	<path class="st1" d="M274.2,115.4v10.3h-63v-10.3h26.2v-50h-26.2V55.3h38.6v60.2L274.2,115.4L274.2,115.4z M249.8,38.9h-14.4V27.4
		h14.4V38.9z M88.4,125.1H73.6v-11.8h14.8V125.1z"/>
	<path class="st1" d="M359.2,115.4v10.3h-63v-10.3h26.4V37.2h-26.2V27.1h38.5v88.4L359.2,115.4L359.2,115.4z"/>
	<path class="st1" d="M442.9,123.8c-5.2,2-12.4,3.4-20,3.4c-19.2,0-29.7-10.1-29.7-30.6V65.4h-25.5l10.2-10.2h15.3V32.6h12.5v22.7
		h34.5v10.1h-34.5V96c0,13.8,6.3,20.2,18.9,20.2c6.9,0,13-1.3,18-3.5L442.9,123.8z"/>
</g>
<rect x="9.5" y="6.5" class="st2" width="178.1" height="134.5"/>
</svg>
