<?xml version="1.0" encoding="utf-8"?>
<!-- Generator: Adobe Illustrator 24.0.3, SVG Export Plug-In . SVG Version: 6.00 Build 0)  -->
<svg version="1.1" id="Layer_1" xmlns="http://www.w3.org/2000/svg" xmlns:xlink="http://www.w3.org/1999/xlink" x="0px" y="0px"
	 viewBox="0 0 200 200" style="enable-background:new 0 0 200 200;" xml:space="preserve">
<style type="text/css">
	.st0{fill:#FFFFFF;}
</style>
<g id="uUziOY.tif">
	<g>
		<path class="st0" d="M98.4,8c1.1,0,2.2,0,3.3,0c0.8,0.1,1.6,0.2,2.4,0.3c6.3,0.9,12.7,1.3,18.8,2.8c46.9,12,76.2,57.9,67.6,105.6
			c-7.2,39.8-40.1,70.7-80.2,75c-22.3,2.4-43-2.4-61.5-15C27.6,162.3,14.5,142.3,9.6,117c-0.7-3.5-1.1-7.1-1.6-10.7
			c0-4,0-7.9,0-11.9c0.2-1.3,0.3-2.6,0.5-3.8c2.1-18.1,8.7-34.4,20.3-48.5c15.1-18.3,34.5-29.3,58-32.8C90.7,8.6,94.6,8.4,98.4,8z
			 M82.3,64.3c0,1,0,1.8,0,2.6c0,11.2,0,22.5,0,33.7c0,4.3-1.3,8-4.6,10.8c-4.3,3.6-9.1,4.4-14.2,2.2c-5.2-2.3-7.9-6.5-7.9-12.2
			c-0.1-11.5,0-23,0-34.5c0-0.8,0-1.6,0-2.5c-4.8,0-9.4,0-14.2,0c0,0.8,0,1.6,0,2.3c0,11,0,22.1,0,33.1c0,1.6,0,3.3,0.3,4.9
			c1.7,11.3,7.9,19.2,18.7,22.8c10.9,3.5,20.4,0.6,28.2-7.8c4.7-5.1,6.9-11.2,7-18.2c0-1.8,0-3.7,0-5.6c3.3,5.2,6.4,10.1,9.4,15
			c0.4,0.7,0.4,1.7,0.3,2.5c-2.1,9.6-4.2,19.2-6.3,28.9c-0.7,3.4-1.4,6.8-2.2,10.2c4.9,0,9.6,0,14.4,0c2.1-9.8,4.2-19.6,6.3-29.4
			c2.4,1.1,4.6,2.2,6.9,3.1c15.8,6,31.6-0.2,38.3-15c4.5-10,3.6-19.6-3.2-28.2c-6.8-8.7-15.9-12.3-26.9-10.4
			c-10.7,1.8-17.2,8.7-21,18.5c-0.4,1-0.7,2.1-1.2,3.5c-0.6-0.9-1-1.5-1.4-2.2c-5-8.4-9-17.2-12.2-26.4c-0.2-0.6-0.8-1.5-1.2-1.5
			C91.2,64.2,86.9,64.3,82.3,64.3z"/>
		<path class="st0" d="M136.7,85.7c7.7,0,14.4,6.5,14.2,13.8c-0.3,8.2-7.7,15.1-15.6,14.4c-5.1-0.4-9.5-2.4-13.5-5.5
			c-0.4-0.3-0.9-1.2-0.8-1.6c0.8-3.6,1.4-7.3,2.6-10.7C126,89.4,130.7,85.8,136.7,85.7z"/>
	</g>
</g>
</svg>
