<?xml version="1.0" encoding="utf-8"?>
<!-- Generator: Adobe Illustrator 24.0.3, SVG Export Plug-In . SVG Version: 6.00 Build 0)  -->
<svg version="1.1" id="Layer_1" xmlns="http://www.w3.org/2000/svg" xmlns:xlink="http://www.w3.org/1999/xlink" x="0px" y="0px"
	 viewBox="0 0 200 200" style="enable-background:new 0 0 200 200;" xml:space="preserve">
<style type="text/css">
	.st0{fill:#FFFFFF;}
</style>
<g id="IcZD0y_1_">
	<g>
		<path class="st0" d="M100.4,15.5c-47-0.2-84.6,36.9-84.9,83.9c-0.4,47.2,36.9,85,84.1,85.2c47,0.2,84.6-36.9,84.9-83.9
			C184.9,53.4,147.6,15.7,100.4,15.5z M100,179.9c-44.2,0-79.8-35.6-79.9-79.7C20,55.8,55.6,20,100,20.1c44.2,0,79.8,35.6,79.9,79.7
			C180,144.2,144.4,180,100,179.9z"/>
		<path class="st0" d="M145.8,107.8c-3.2,11-6.6,21.9-11,32.9c-8.2-24.4-16.4-48.7-24.8-73.7c2.7-0.2,4.8,0,6.6-0.6
			c1.5-0.5,2.7-2.1,4-3.2c-1.5-1.1-3-3-4.5-3c-5.6-0.1-11.3,0.7-16.9,0.7c-5.8,0-11.7-0.7-17.5-0.7c-1.6,0-3.3,1.6-4.9,2.5
			c1.5,1.3,3.1,3.8,4.4,3.6c5.1-0.6,5.9,2.8,7.7,6.2c8.6,16.2,9,32.2,0.7,48.8c-3,6.1-4.5,13-6.7,19.5c-0.4,0-0.8-0.1-1.3-0.1
			C73.5,116.4,65.4,92,57,67.1c2.3-0.2,4.1,0,5.5-0.6c1.8-0.8,3.3-2.2,5-3.4c-1.9-1-3.8-2.8-5.7-2.8c-6.5-0.1-13,0.5-20,0.8
			C61.9,28,112.5,17.2,146.2,46.9c-1.3,0.5-2.4,1-3.5,1.5c-6.1,2.7-9.4,8.9-7.4,15.3c1.3,4.1,3.2,8.1,5.5,11.7
			C147.3,85.5,149.2,96.2,145.8,107.8z"/>
		<path class="st0" d="M123.1,166.6c-14.3,4.8-28.1,5.3-42.7,1.1c6.9-20,13.6-39.8,20.9-60.9C108.7,127.3,115.8,146.6,123.1,166.6z"
			/>
		<path class="st0" d="M68.6,163c-36.2-18.3-47.5-61.4-33-90.5C46.5,102.5,57.4,132.2,68.6,163z"/>
		<path class="st0" d="M136.9,159.7c7.9-30.6,23.3-58.2,26.7-88.7C178.3,94.7,170.9,140,136.9,159.7z"/>
	</g>
</g>
</svg>
